<?xml version="1.0" standalone="no"?>
<!DOCTYPE svg PUBLIC "-//W3C//DTD SVG 20010904//EN"
 "http://www.w3.org/TR/2001/REC-SVG-20010904/DTD/svg10.dtd">
<svg version="1.0" xmlns="http://www.w3.org/2000/svg"
 width="700.000000pt" height="700.000000pt" viewBox="0 0 700.000000 700.000000"
 preserveAspectRatio="xMidYMid meet">
<metadata>
Created by potrace 1.14, written by Peter Selinger 2001-2017
</metadata>
<g transform="translate(0.000000,700.000000) scale(0.100000,-0.100000)"
fill="#000000" stroke="none">
<path d="M0 3500 l0 -3500 3500 0 3500 0 0 3500 0 3500 -3500 0 -3500 0 0
-3500z m1623 2263 c8 -38 41 -191 73 -341 32 -149 61 -269 65 -265 4 5 39 141
78 303 40 162 77 312 82 333 l10 37 112 0 112 0 90 -345 c49 -189 91 -343 92
-341 4 3 143 666 143 678 0 4 54 8 120 8 66 0 120 -3 120 -8 0 -8 -234 -916
-245 -951 -6 -20 -14 -21 -133 -21 l-127 0 -84 319 c-46 176 -87 324 -90 330
-4 5 -45 -139 -91 -320 l-85 -329 -122 0 -121 0 -11 33 c-5 17 -58 217 -116
442 -59 226 -113 431 -120 458 l-14 47 123 0 124 0 15 -67z m1387 -18 l0 -85
-105 0 -105 0 0 85 0 85 105 0 105 0 0 -85z m370 -405 l0 -490 -105 0 -105 0
0 490 0 490 105 0 105 0 0 -490z m627 231 c58 -26 120 -87 153 -151 24 -47 50
-156 50 -212 l0 -38 -250 0 -250 0 0 -32 c0 -46 38 -107 80 -129 38 -21 109
-25 143 -8 12 6 43 34 69 62 l48 52 75 -40 c41 -22 75 -45 75 -52 0 -22 -103
-124 -149 -148 -107 -54 -268 -58 -367 -10 -69 34 -147 119 -171 187 -25 74
-25 231 2 312 33 102 110 183 207 218 74 26 212 21 285 -11z m-997 -356 l0
-365 -105 0 -105 0 0 365 0 365 105 0 105 0 0 -365z m1444 348 c2 -10 28 -126
56 -258 28 -132 54 -247 57 -255 4 -10 116 472 123 528 0 5 230 2 230 -3 0 -3
-62 -193 -138 -423 -87 -263 -149 -433 -167 -460 -44 -67 -83 -82 -215 -82
l-110 0 0 80 0 80 49 0 c64 0 110 17 116 43 4 13 -42 173 -110 386 -63 200
-115 368 -115 373 0 4 49 8 109 8 96 0 110 -2 115 -17z m-2384 -880 c121 -39
244 -157 289 -278 63 -169 47 -370 -43 -509 -127 -198 -375 -273 -609 -186
-111 42 -224 162 -268 285 -27 76 -37 243 -19 324 40 185 179 331 356 376 75
19 219 13 294 -12z m1460 -493 l0 -490 -105 0 -105 0 0 490 0 490 105 0 105 0
0 -490z m350 410 l0 -80 -105 0 -105 0 0 80 0 80 105 0 105 0 0 -80z m-833
-165 c50 -21 72 -42 94 -90 17 -36 19 -70 19 -342 l0 -303 -104 0 -105 0 -3
261 -3 261 -33 29 c-37 33 -85 38 -131 15 -47 -25 -51 -47 -51 -316 l0 -250
-110 0 -110 0 0 365 0 365 110 0 110 0 0 -26 0 -25 31 22 c18 12 48 28 68 35
51 18 173 17 218 -1z m1518 4 c52 -15 99 -66 114 -123 7 -28 11 -150 11 -330
l0 -286 -110 0 -110 0 0 259 0 260 -24 28 c-21 24 -31 28 -80 28 -66 0 -92
-20 -106 -81 -5 -21 -10 -141 -10 -266 l0 -228 -105 0 -105 0 0 365 0 365 105
0 105 0 0 -25 c0 -30 3 -31 39 -4 62 46 185 63 276 38z m777 -18 c61 -29 112
-80 144 -143 28 -55 54 -161 54 -220 l0 -38 -251 0 -252 0 6 -42 c10 -75 79
-138 149 -138 57 0 104 26 147 80 l37 47 77 -39 c47 -23 77 -44 77 -54 0 -9
-28 -44 -62 -78 -86 -86 -147 -109 -283 -110 -89 0 -107 3 -162 28 -75 34
-134 94 -171 174 -23 50 -27 69 -26 162 0 136 25 217 91 290 77 85 145 111
283 107 74 -3 106 -9 142 -26z m-1462 -356 l0 -365 -105 0 -105 0 0 365 0 365
105 0 105 0 0 -365z m-2190 -920 l0 -385 195 0 195 0 0 -105 0 -105 -315 0
-315 0 0 490 0 490 120 0 120 0 0 -385z m710 305 l0 -80 -110 0 -110 0 0 80 0
80 110 0 110 0 0 -80z m370 -75 l0 -156 38 29 c49 39 92 52 167 52 191 0 305
-134 305 -359 -1 -241 -100 -381 -287 -406 -67 -9 -151 15 -198 56 l-35 31 0
-36 0 -36 -100 0 -100 0 0 490 0 490 105 0 105 0 0 -155z m1620 -102 c53 -24
93 -65 109 -112 7 -22 11 -125 11 -285 0 -138 4 -268 9 -288 l9 -38 -98 0
c-103 0 -110 3 -110 51 0 24 -12 24 -34 0 -59 -65 -232 -86 -322 -40 -71 37
-107 92 -112 174 -10 161 98 247 361 285 l87 13 0 48 c0 62 -30 89 -99 89 -56
0 -88 -20 -107 -66 l-14 -34 -95 0 c-108 0 -113 3 -95 70 15 57 71 115 133
140 45 17 70 20 187 17 111 -2 143 -7 180 -24z m-1992 -355 l2 -368 -110 0
-110 0 0 363 c0 200 3 367 7 371 4 4 52 5 107 4 l101 -3 3 -367z m1202 336 c0
-20 3 -34 8 -32 74 38 124 57 157 60 l40 3 3 -92 3 -91 -33 -7 c-100 -19 -128
-29 -149 -52 -24 -24 -24 -29 -27 -259 l-3 -234 -105 0 -104 0 0 370 0 370
105 0 105 0 0 -36z m1260 0 c0 -20 3 -34 8 -32 64 33 124 57 155 62 l37 7 0
-94 c0 -99 -4 -107 -49 -107 -10 0 -41 -7 -69 -15 -80 -24 -82 -32 -82 -300
l0 -225 -105 0 -105 0 0 370 0 370 105 0 105 0 0 -36z m464 28 c2 -4 30 -128
62 -275 32 -147 60 -265 62 -262 2 2 30 124 61 272 l58 268 103 3 c57 1 109 1
116 -2 14 -5 -236 -777 -278 -861 -48 -94 -92 -115 -243 -115 l-105 0 0 85 0
85 66 0 c83 0 104 11 104 53 -1 18 -52 192 -114 387 -62 195 -111 358 -109
363 6 10 210 9 217 -1z m-3312 -931 c94 -46 159 -132 199 -261 34 -113 33
-285 -4 -393 -62 -181 -164 -268 -335 -289 -43 -5 -151 -7 -242 -6 l-165 3 -3
488 -2 488 252 -3 c242 -3 255 -4 300 -27z m1648 -76 l0 -65 -40 0 -40 0 0 65
0 65 40 0 40 0 0 -65z m-914 -223 c84 -43 143 -139 158 -259 l7 -53 -257 0
-257 0 7 -62 c17 -148 81 -211 212 -210 30 0 69 5 88 12 33 10 108 81 118 110
5 17 78 5 78 -14 0 -27 -66 -110 -109 -138 -59 -37 -101 -48 -186 -48 -125 0
-231 76 -272 193 -25 72 -25 232 0 304 29 84 104 157 187 184 47 15 181 4 226
-19z m619 1 c47 -25 80 -58 94 -94 9 -26 8 -27 -30 -37 -37 -9 -41 -8 -49 11
-4 12 -20 33 -35 47 -24 23 -34 25 -117 25 -89 0 -90 0 -119 -33 -21 -24 -29
-42 -29 -71 0 -50 37 -83 117 -106 167 -46 193 -56 222 -86 77 -77 59 -211
-38 -276 -46 -31 -94 -43 -177 -43 -95 0 -165 34 -211 104 -18 26 -33 54 -33
62 0 17 72 32 78 16 10 -30 51 -77 82 -93 42 -23 145 -25 194 -5 47 20 66 51
66 111 0 78 -27 98 -180 135 -52 13 -106 29 -120 35 -99 51 -115 185 -31 266
50 47 90 59 191 55 63 -2 96 -8 125 -23z m769 15 c24 -7 59 -30 83 -55 l42
-41 3 46 3 47 40 0 40 0 3 -315 c3 -343 -7 -498 -33 -551 -46 -91 -126 -133
-255 -134 -99 0 -138 9 -193 46 -50 33 -97 111 -97 161 0 22 6 29 28 34 15 3
32 7 38 9 6 2 16 -17 23 -42 24 -93 107 -140 228 -130 130 10 166 60 171 237
l4 114 -45 -41 c-97 -89 -256 -85 -355 10 -161 154 -117 511 73 598 47 22 139
25 199 7z m731 1 c54 -15 109 -74 124 -132 7 -28 11 -140 11 -291 l0 -246 -39
0 -39 0 -4 248 c-3 212 -6 252 -21 282 -25 51 -63 70 -137 70 -64 0 -90 -9
-128 -44 -53 -48 -57 -65 -62 -316 l-5 -235 -40 0 -40 0 0 330 0 330 40 0 c40
0 40 0 43 -43 l3 -42 27 31 c52 62 164 86 267 58z m638 -18 c34 -16 55 -36 73
-67 15 -25 24 -47 21 -50 -3 -3 -21 -9 -40 -14 -32 -7 -36 -5 -51 27 -20 43
-66 63 -143 63 -96 0 -152 -42 -153 -113 0 -52 42 -80 175 -116 169 -47 215
-88 215 -193 0 -116 -102 -197 -250 -198 -89 0 -135 15 -184 60 -41 38 -85
104 -76 114 3 2 21 7 40 11 33 6 38 4 60 -31 41 -62 72 -78 154 -82 77 -4 114
7 149 46 42 46 27 145 -24 173 -12 6 -73 24 -137 39 -63 16 -127 37 -141 48
-81 59 -80 206 2 264 52 37 97 49 182 45 59 -2 94 -9 128 -26z m-1843 -316 l0
-335 -40 0 -40 0 0 328 c0 181 3 332 7 335 3 4 21 7 40 7 l33 0 0 -335z"/>
<path d="M3773 5421 c-34 -22 -63 -67 -63 -101 0 -19 6 -20 140 -20 l140 0 0
30 c0 20 -11 42 -34 67 -30 33 -39 37 -92 40 -46 3 -66 0 -91 -16z"/>
<path d="M1800 4484 c-77 -33 -122 -100 -141 -209 -27 -158 23 -308 124 -366
58 -33 172 -34 235 -1 91 48 137 156 130 306 -6 139 -53 225 -143 267 -49 23
-155 25 -205 3z"/>
<path d="M5137 4286 c-46 -17 -64 -32 -83 -67 -30 -58 -27 -59 126 -59 135 0
140 1 140 21 0 76 -102 134 -183 105z"/>
<path d="M2864 3136 c-69 -30 -100 -115 -92 -250 6 -88 20 -126 63 -166 22
-21 36 -25 87 -25 56 0 62 2 93 36 52 58 68 162 42 286 -15 69 -36 99 -84 119
-40 17 -69 17 -109 0z"/>
<path d="M4201 2880 c-107 -32 -144 -60 -144 -111 0 -23 8 -39 28 -57 24 -20
36 -23 78 -19 88 8 141 72 135 165 l-3 50 -94 -28z"/>
<path d="M1560 1894 l0 -406 173 4 c170 3 175 4 232 33 111 57 165 161 173
335 2 62 0 129 -7 162 -17 81 -65 172 -114 213 -62 53 -115 65 -299 65 l-158
0 0 -406z"/>
<path d="M2508 1977 c-48 -29 -77 -67 -94 -123 l-13 -44 204 0 c157 0 205 3
205 13 0 23 -47 112 -71 134 -54 49 -167 59 -231 20z"/>
<path d="M3962 1984 c-85 -43 -130 -171 -111 -312 20 -139 85 -205 205 -204
89 1 137 30 180 112 15 28 19 57 19 145 0 98 -3 116 -26 166 -37 78 -75 103
-164 107 -51 2 -79 -2 -103 -14z"/>
</g>
</svg>
